<svg width="100" height="100" viewBox="0 0 100 100" fill="none" xmlns="http://www.w3.org/2000/svg">
<path d="M50 100C59.889 100 69.556 97.0676 77.7785 91.5735C86.0009 86.0794 92.4096 78.2705 96.194 69.1342C99.9783 59.9979 100.969 49.9445 99.0392 40.2455C97.11 30.5464 92.3479 21.6373 85.3553 14.6447C78.3627 7.65205 69.4535 2.89002 59.7545 0.960758C50.0554 -0.968502 40.0021 0.0216641 30.8658 3.80605C21.7295 7.59043 13.9206 13.9991 8.42651 22.2215C2.93243 30.444 0 40.111 0 50C0.0149841 63.2562 5.28764 75.9652 14.6612 85.3388C24.0348 94.7124 36.7438 99.985 50 100ZM50 2.08336C59.477 2.08336 68.7412 4.89362 76.621 10.1588C84.5009 15.4239 90.6425 22.9075 94.2692 31.6631C97.8959 40.4187 98.8448 50.0532 96.9959 59.3481C95.1471 68.643 90.5834 77.1809 83.8822 83.8822C77.1809 90.5835 68.643 95.1471 59.3481 96.996C50.0531 98.8448 40.4187 97.8959 31.6631 94.2692C22.9074 90.6425 15.4239 84.5009 10.1587 76.6211C4.89357 68.7412 2.08333 59.477 2.08333 50C2.09772 37.2962 7.15069 25.1167 16.1337 16.1337C25.1167 7.15073 37.2961 2.09776 50 2.08336Z" fill="#F9F9F9"/>
</svg>
