<svg width="174" height="40" viewBox="0 0 174 40" fill="none" xmlns="http://www.w3.org/2000/svg">
<rect width="174" height="40" rx="20" fill="url(#paint0_linear)"/>
<path d="M13.74 27.24C12.8867 27.24 12.1067 27.0867 11.4 26.78C10.6933 26.46 10.0867 26.0067 9.58 25.42C9.07333 24.82 8.68 24.1 8.4 23.26C8.12 22.42 7.98 21.4667 7.98 20.4C7.98 19.3467 8.12 18.4067 8.4 17.58C8.68 16.74 9.07333 16.0333 9.58 15.46C10.0867 14.8867 10.6933 14.4467 11.4 14.14C12.1067 13.8333 12.8867 13.68 13.74 13.68C14.5933 13.68 15.3733 13.8333 16.08 14.14C16.7867 14.4467 17.3933 14.8867 17.9 15.46C18.42 16.0333 18.82 16.74 19.1 17.58C19.38 18.4067 19.52 19.3467 19.52 20.4C19.52 21.4667 19.38 22.42 19.1 23.26C18.82 24.1 18.42 24.82 17.9 25.42C17.3933 26.0067 16.7867 26.46 16.08 26.78C15.3733 27.0867 14.5933 27.24 13.74 27.24ZM13.74 25.22C14.26 25.22 14.7267 25.1067 15.14 24.88C15.5533 24.6533 15.9067 24.3333 16.2 23.92C16.4933 23.4933 16.72 22.9867 16.88 22.4C17.04 21.8 17.12 21.1333 17.12 20.4C17.12 18.9333 16.8133 17.7867 16.2 16.96C15.6 16.12 14.78 15.7 13.74 15.7C12.7 15.7 11.8733 16.12 11.26 16.96C10.66 17.7867 10.36 18.9333 10.36 20.4C10.36 21.1333 10.44 21.8 10.6 22.4C10.76 22.9867 10.9867 23.4933 11.28 23.92C11.5733 24.3333 11.9267 24.6533 12.34 24.88C12.7533 25.1067 13.22 25.22 13.74 25.22ZM26.1766 27.24C24.6566 27.24 23.4832 26.6933 22.6566 25.6C21.8432 24.5067 21.4366 22.96 21.4366 20.96C21.4366 19.3867 21.5832 18.1133 21.8766 17.14C22.1699 16.1533 22.5832 15.3733 23.1166 14.8C23.6632 14.2267 24.3166 13.8133 25.0766 13.56C25.8366 13.2933 26.6766 13.0933 27.5966 12.96C27.8899 12.92 28.1366 12.88 28.3366 12.84C28.5499 12.8 28.7366 12.76 28.8966 12.72C29.0699 12.68 29.2232 12.6333 29.3566 12.58C29.5032 12.5267 29.6499 12.4667 29.7966 12.4L30.2566 14.44C29.9899 14.6267 29.6632 14.7733 29.2766 14.88C28.9032 14.9733 28.5032 15.0533 28.0766 15.12C27.3299 15.2267 26.6966 15.3333 26.1766 15.44C25.6699 15.5467 25.2432 15.7333 24.8966 16C24.5632 16.2533 24.3032 16.6133 24.1166 17.08C23.9299 17.5467 23.7966 18.1933 23.7166 19.02C24.1032 18.5533 24.5632 18.2 25.0966 17.96C25.6299 17.72 26.1899 17.6 26.7766 17.6C27.3232 17.6 27.8299 17.7 28.2966 17.9C28.7766 18.1 29.1899 18.4 29.5366 18.8C29.8832 19.1867 30.1499 19.6667 30.3366 20.24C30.5366 20.8 30.6366 21.4467 30.6366 22.18C30.6366 22.94 30.5232 23.6333 30.2966 24.26C30.0699 24.8867 29.7566 25.42 29.3566 25.86C28.9566 26.3 28.4832 26.64 27.9366 26.88C27.3899 27.12 26.8032 27.24 26.1766 27.24ZM26.1566 25.36C26.7966 25.36 27.3099 25.0733 27.6966 24.5C28.0832 23.9133 28.2766 23.14 28.2766 22.18C28.2766 21.22 28.0899 20.5067 27.7166 20.04C27.3432 19.5733 26.8166 19.34 26.1366 19.34C25.7232 19.34 25.2966 19.4467 24.8566 19.66C24.4299 19.86 24.0232 20.24 23.6366 20.8V21.46C23.6366 22.74 23.8499 23.7133 24.2766 24.38C24.7032 25.0333 25.3299 25.36 26.1566 25.36ZM32.9913 30.88V17.18H34.8913L35.0513 18.22H35.1313C35.5446 17.8733 36.0046 17.5733 36.5113 17.32C37.0179 17.0667 37.5446 16.94 38.0913 16.94C38.7046 16.94 39.2446 17.06 39.7113 17.3C40.1913 17.5267 40.5979 17.86 40.9313 18.3C41.2646 18.74 41.5179 19.2667 41.6913 19.88C41.8646 20.4933 41.9513 21.18 41.9513 21.94C41.9513 22.78 41.8313 23.5333 41.5913 24.2C41.3646 24.8533 41.0579 25.4067 40.6713 25.86C40.2846 26.3 39.8379 26.64 39.3313 26.88C38.8246 27.12 38.2979 27.24 37.7513 27.24C37.3246 27.24 36.8979 27.1467 36.4713 26.96C36.0446 26.7733 35.6313 26.5067 35.2313 26.16L35.2913 27.8V30.88H32.9913ZM37.2713 25.34C37.9246 25.34 38.4713 25.06 38.9113 24.5C39.3513 23.9267 39.5713 23.08 39.5713 21.96C39.5713 20.9733 39.4046 20.2067 39.0713 19.66C38.7379 19.1133 38.1979 18.84 37.4513 18.84C36.7579 18.84 36.0379 19.2067 35.2913 19.94V24.52C35.6513 24.8267 35.9979 25.04 36.3313 25.16C36.6646 25.28 36.9779 25.34 37.2713 25.34ZM46.4259 27.24C45.5593 27.24 44.8593 26.98 44.3259 26.46C43.7926 25.9267 43.5259 25.2267 43.5259 24.36C43.5259 23.84 43.6326 23.38 43.8459 22.98C44.0726 22.5667 44.4193 22.2133 44.8859 21.92C45.3659 21.6267 45.9659 21.38 46.6859 21.18C47.4193 20.98 48.2926 20.8267 49.3059 20.72C49.2926 20.4667 49.2526 20.2267 49.1859 20C49.1326 19.76 49.0326 19.5533 48.8859 19.38C48.7526 19.1933 48.5726 19.0533 48.3459 18.96C48.1193 18.8533 47.8393 18.8 47.5059 18.8C47.0259 18.8 46.5526 18.8933 46.0859 19.08C45.6326 19.2667 45.1859 19.4933 44.7459 19.76L43.9059 18.22C44.4526 17.8733 45.0659 17.5733 45.7459 17.32C46.4259 17.0667 47.1593 16.94 47.9459 16.94C49.1726 16.94 50.0859 17.3067 50.6859 18.04C51.2993 18.76 51.6059 19.8067 51.6059 21.18V27H49.7059L49.5459 25.92H49.4659C49.0259 26.2933 48.5526 26.6067 48.0459 26.86C47.5526 27.1133 47.0126 27.24 46.4259 27.24ZM47.1659 25.44C47.5659 25.44 47.9259 25.3467 48.2459 25.16C48.5793 24.9733 48.9326 24.7067 49.3059 24.36V22.16C48.6393 22.24 48.0793 22.3467 47.6259 22.48C47.1726 22.6133 46.8059 22.7667 46.5259 22.94C46.2459 23.1 46.0459 23.2867 45.9259 23.5C45.8059 23.7133 45.7459 23.94 45.7459 24.18C45.7459 24.62 45.8793 24.94 46.1459 25.14C46.4126 25.34 46.7526 25.44 47.1659 25.44ZM56.1859 27V19H53.1059V17.18H61.5859V19H58.5059V27H56.1859ZM63.5577 27V17.18H65.8577V20.94H69.7777V17.18H72.0777V27H69.7777V22.96H65.8577V27H63.5577ZM75.003 27V17.18H77.303V20.54H78.343C78.9296 20.54 79.4696 20.6 79.963 20.72C80.4696 20.84 80.903 21.0267 81.263 21.28C81.623 21.5333 81.903 21.8667 82.103 22.28C82.3163 22.68 82.423 23.1667 82.423 23.74C82.423 24.3267 82.3163 24.8267 82.103 25.24C81.903 25.6533 81.623 25.9933 81.263 26.26C80.903 26.5133 80.4696 26.7 79.963 26.82C79.4696 26.94 78.9296 27 78.343 27H75.003ZM77.303 25.22H78.203C79.523 25.22 80.183 24.72 80.183 23.72C80.183 22.76 79.523 22.28 78.203 22.28H77.303V25.22ZM83.923 27V17.18H86.223V27H83.923ZM89.1436 27V17.18H91.3836V20.56C91.3836 21.0667 91.3569 21.6333 91.3036 22.26C91.2636 22.8733 91.2236 23.4933 91.1836 24.12H91.2436C91.4169 23.8133 91.6236 23.4667 91.8636 23.08C92.1036 22.68 92.3036 22.3333 92.4636 22.04L95.5836 17.18H97.7036V27H95.4636V23.62C95.4636 23.1133 95.4836 22.5533 95.5236 21.94C95.5769 21.3133 95.6303 20.6867 95.6836 20.06H95.6036C95.4303 20.3667 95.2236 20.72 94.9836 21.12C94.7569 21.5067 94.5569 21.8467 94.3836 22.14L91.2636 27H89.1436ZM93.5036 15.54C92.9303 15.54 92.4369 15.46 92.0236 15.3C91.6236 15.1267 91.2903 14.9 91.0236 14.62C90.7703 14.34 90.5769 14.0067 90.4436 13.62C90.3103 13.2333 90.2369 12.82 90.2236 12.38H92.0436C92.0703 12.94 92.1836 13.3933 92.3836 13.74C92.5836 14.0867 92.9569 14.26 93.5036 14.26C94.0503 14.26 94.4236 14.0867 94.6236 13.74C94.8236 13.3933 94.9369 12.94 94.9636 12.38H96.7836C96.7703 12.82 96.6969 13.2333 96.5636 13.62C96.4303 14.0067 96.2303 14.34 95.9636 14.62C95.7103 14.9 95.3769 15.1267 94.9636 15.3C94.5636 15.46 94.0769 15.54 93.5036 15.54ZM107.572 27.24C106.892 27.24 106.245 27.16 105.632 27C105.032 26.8267 104.425 26.5067 103.812 26.04L104.752 24.56C105.179 24.8933 105.612 25.1267 106.052 25.26C106.505 25.3933 106.945 25.46 107.372 25.46C107.972 25.46 108.472 25.3333 108.872 25.08C109.285 24.8267 109.492 24.4733 109.492 24.02C109.492 23.1533 108.825 22.72 107.492 22.72H106.032V21.16H107.292C107.919 21.16 108.385 21.0533 108.692 20.84C108.999 20.6133 109.152 20.3067 109.152 19.92C109.152 19.52 108.992 19.22 108.672 19.02C108.365 18.82 107.945 18.72 107.412 18.72C106.905 18.72 106.459 18.78 106.072 18.9C105.685 19.02 105.299 19.2133 104.912 19.48L104.012 17.98C104.519 17.6333 105.059 17.3733 105.632 17.2C106.219 17.0267 106.859 16.94 107.552 16.94C108.059 16.94 108.539 16.9933 108.992 17.1C109.459 17.2067 109.865 17.3733 110.212 17.6C110.572 17.8133 110.852 18.0933 111.052 18.44C111.265 18.7867 111.372 19.1933 111.372 19.66C111.372 20.1 111.239 20.52 110.972 20.92C110.705 21.3067 110.305 21.5933 109.772 21.78V21.86C110.372 22.0067 110.852 22.2733 111.212 22.66C111.585 23.0333 111.772 23.56 111.772 24.24C111.772 24.72 111.652 25.1467 111.412 25.52C111.185 25.8933 110.872 26.2067 110.472 26.46C110.085 26.7133 109.639 26.9067 109.132 27.04C108.625 27.1733 108.105 27.24 107.572 27.24ZM113.948 27V17.18H117.928C118.475 17.18 118.975 17.2267 119.428 17.32C119.895 17.4 120.295 17.54 120.628 17.74C120.975 17.94 121.242 18.2067 121.428 18.54C121.628 18.86 121.728 19.2533 121.728 19.72C121.728 20.2 121.588 20.6267 121.308 21C121.042 21.36 120.635 21.62 120.088 21.78V21.86C120.675 22.0067 121.162 22.26 121.548 22.62C121.935 22.98 122.128 23.5 122.128 24.18C122.128 24.6733 122.022 25.1 121.808 25.46C121.608 25.8067 121.328 26.1 120.968 26.34C120.608 26.5667 120.182 26.7333 119.688 26.84C119.208 26.9467 118.688 27 118.128 27H113.948ZM116.208 21.16H117.708C118.348 21.16 118.808 21.0533 119.088 20.84C119.368 20.6267 119.508 20.3333 119.508 19.96C119.508 19.5733 119.375 19.2733 119.108 19.06C118.842 18.8467 118.395 18.74 117.768 18.74H116.208V21.16ZM116.208 25.44H117.968C118.635 25.44 119.115 25.3133 119.408 25.06C119.715 24.8067 119.868 24.4667 119.868 24.04C119.868 23.64 119.708 23.32 119.388 23.08C119.068 22.84 118.568 22.72 117.888 22.72H116.208V25.44ZM128.32 27.24C127.707 27.24 127.12 27.1267 126.56 26.9C126 26.6733 125.5 26.34 125.06 25.9C124.633 25.46 124.293 24.92 124.04 24.28C123.787 23.64 123.66 22.9133 123.66 22.1C123.66 21.2867 123.787 20.56 124.04 19.92C124.293 19.28 124.633 18.74 125.06 18.3C125.5 17.86 126 17.5267 126.56 17.3C127.12 17.06 127.707 16.94 128.32 16.94C128.933 16.94 129.52 17.06 130.08 17.3C130.653 17.5267 131.153 17.86 131.58 18.3C132.007 18.74 132.347 19.28 132.6 19.92C132.867 20.56 133 21.2867 133 22.1C133 22.9133 132.867 23.64 132.6 24.28C132.347 24.92 132.007 25.46 131.58 25.9C131.153 26.34 130.653 26.6733 130.08 26.9C129.52 27.1267 128.933 27.24 128.32 27.24ZM128.32 25.36C129.04 25.36 129.607 25.0667 130.02 24.48C130.433 23.88 130.64 23.0867 130.64 22.1C130.64 21.1 130.433 20.3067 130.02 19.72C129.607 19.12 129.04 18.82 128.32 18.82C127.6 18.82 127.033 19.12 126.62 19.72C126.22 20.3067 126.02 21.1 126.02 22.1C126.02 23.0867 126.22 23.88 126.62 24.48C127.033 25.0667 127.6 25.36 128.32 25.36ZM135.276 27V17.18H137.576V20.94H141.496V17.18H143.796V27H141.496V22.96H137.576V27H135.276ZM150.742 27.24C150.128 27.24 149.542 27.1267 148.982 26.9C148.422 26.6733 147.922 26.34 147.482 25.9C147.055 25.46 146.715 24.92 146.462 24.28C146.208 23.64 146.082 22.9133 146.082 22.1C146.082 21.2867 146.208 20.56 146.462 19.92C146.715 19.28 147.055 18.74 147.482 18.3C147.922 17.86 148.422 17.5267 148.982 17.3C149.542 17.06 150.128 16.94 150.742 16.94C151.355 16.94 151.942 17.06 152.502 17.3C153.075 17.5267 153.575 17.86 154.002 18.3C154.428 18.74 154.768 19.28 155.022 19.92C155.288 20.56 155.422 21.2867 155.422 22.1C155.422 22.9133 155.288 23.64 155.022 24.28C154.768 24.92 154.428 25.46 154.002 25.9C153.575 26.34 153.075 26.6733 152.502 26.9C151.942 27.1267 151.355 27.24 150.742 27.24ZM150.742 25.36C151.462 25.36 152.028 25.0667 152.442 24.48C152.855 23.88 153.062 23.0867 153.062 22.1C153.062 21.1 152.855 20.3067 152.442 19.72C152.028 19.12 151.462 18.82 150.742 18.82C150.022 18.82 149.455 19.12 149.042 19.72C148.642 20.3067 148.442 21.1 148.442 22.1C148.442 23.0867 148.642 23.88 149.042 24.48C149.455 25.0667 150.022 25.36 150.742 25.36ZM157.698 27V17.18H159.998V21H161.438L162.358 19.02C162.545 18.5933 162.738 18.2467 162.938 17.98C163.152 17.7133 163.372 17.5067 163.598 17.36C163.825 17.2 164.072 17.0933 164.338 17.04C164.605 16.9733 164.892 16.94 165.198 16.94C165.465 16.94 165.698 16.98 165.898 17.06L165.518 19.2C165.398 19.16 165.278 19.14 165.158 19.14C164.918 19.14 164.692 19.2133 164.478 19.36C164.265 19.4933 164.052 19.8067 163.838 20.3L163.158 21.82L166.498 27H163.958L161.478 22.84H159.998V27H157.698Z" fill="white"/>
<defs>
<linearGradient id="paint0_linear" x1="18.56" y1="36.7179" x2="109.743" y2="-102.939" gradientUnits="userSpaceOnUse">
<stop stop-color="#35CC79"/>
<stop offset="1" stop-color="#347D55" stop-opacity="0.65"/>
</linearGradient>
</defs>
</svg>
